<svg width="354.9144775390625px" height="121.39999999999999px" xmlns="http://www.w3.org/2000/svg" viewBox="72.54276123046876 14.300000000000004 354.9144775390625 121.39999999999999" style="background: rgba(0, 0, 0, 0);" preserveAspectRatio="xMidYMid"><defs><linearGradient id="editing-gradow-gradient" x1="0" x2="1" y1="0.5" y2="0.5" gradientUnits="objectBoundingBox"><stop offset="0" stop-color="#f0f"></stop><stop offset="1" stop-color="#0ff"></stop></linearGradient><filter id="editing-gradow-filter" x="-100%" y="-100%" width="300%" height="300%"><feFlood flood-color="#fffcd9" result="flood"></feFlood><feComposite operator="in" in2="SourceAlpha" in="flood" result="shadow"></feComposite><feOffset dx="-4" dy="-4" in="SourceGraphic" result="offset-1"></feOffset><feOffset dx="4" dy="4" in="shadow" result="offset-2"></feOffset><feMerge><feMergeNode in="offset-2"></feMergeNode><feMergeNode in="offset-1"></feMergeNode></feMerge></filter></defs><g filter="url(#editing-gradow-filter)"><g transform="translate(126.70674619078636, 96.76000022888184)"><path d="M30.21-33.92L30.21-33.92L30.21-33.92Q25.02-33.92 21.25-35.65L21.25-35.65L19.20-25.28L31.55-25.28L31.55-25.28Q31.55-21.89 29.86-19.74L29.86-19.74L29.86-19.74Q28.16-17.60 25.09-17.60L25.09-17.60L25.09-17.60Q21.76-17.60 18.69-18.82L18.69-18.82L18.69-18.82Q18.05-19.07 17.98-19.14L17.98-19.14L14.34 0L0.38 0L8.51-42.24L37.06-42.24L37.06-42.24Q37.06-38.34 35.23-36.13L35.23-36.13L35.23-36.13Q33.41-33.92 30.21-33.92ZM55.62-2.69L55.62-2.69L55.62-2.69Q52.54 1.28 44.93 1.28L44.93 1.28L44.93 1.28Q40.96 1.28 38.08-1.12L38.08-1.12L38.08-1.12Q35.20-3.52 35.20-6.98L35.20-6.98L35.20-6.98Q35.20-8.90 35.39-9.86L35.39-9.86L39.68-32.64L52.67-33.92L48-9.22L48-9.22Q47.74-7.81 47.74-6.98L47.74-6.98L47.74-6.98Q47.74-3.26 49.98-3.26L49.98-3.26L49.98-3.26Q52.48-3.26 54.27-6.66L54.27-6.66L54.27-6.66Q54.85-7.74 55.10-9.15L55.10-9.15L59.65-32.64L72.26-33.92L67.52-8.96L67.52-8.96Q67.33-8 67.33-6.98L67.33-6.98L67.33-6.98Q67.33-5.95 67.90-4.83L67.90-4.83L67.90-4.83Q68.48-3.71 70.34-3.46L70.34-3.46L70.34-3.46Q69.95-1.92 68.61-0.90L68.61-0.90L68.61-0.90Q65.79 1.28 62.75 1.28L62.75 1.28L62.75 1.28Q59.71 1.28 57.92 0.19L57.92 0.19L57.92 0.19Q56.13-0.90 55.62-2.69ZM95.74-17.98L95.74-17.98L95.74-17.98Q98.05-22.08 98.05-26.24L98.05-26.24L98.05-26.24Q98.05-28.99 96.06-28.99L96.06-28.99L96.06-28.99Q94.53-28.99 92.93-26.37L92.93-26.37L92.93-26.37Q91.26-23.74 90.75-20.35L90.75-20.35L87.42 0L74.18 1.28L80.70-32.64L91.26-33.92L90.11-27.46L90.11-27.46Q93.25-33.92 100.29-33.92L100.29-33.92L100.29-33.92Q104-33.92 106.02-32L106.02-32L106.02-32Q108.03-30.08 108.03-26.14L108.03-26.14L108.03-26.14Q108.03-22.21 105.44-19.71L105.44-19.71L105.44-19.71Q102.85-17.22 98.43-17.22L98.43-17.22L98.43-17.22Q96.51-17.22 95.74-17.98ZM136.38-9.86L136.38-9.86L136.38-9.86Q137.60-8.32 137.60-5.82L137.60-5.82L137.60-5.82Q137.60-2.37 135.04-0.54L135.04-0.54L135.04-0.54Q132.48 1.28 128.45 1.28L128.45 1.28L128.45 1.28Q126.14 1.28 122.62 0.77L122.62 0.77L122.62 0.77Q115.71-0.32 113.60-0.32L113.60-0.32L113.60-0.32Q111.49-0.32 110.66-0.22L110.66-0.22L110.66-0.22Q109.82-0.13 108.48 0L108.48 0L116.35-42.24L143.94-42.24L143.94-42.24Q143.94-38.34 142.05-36.29L142.05-36.29L142.05-36.29Q140.16-34.24 136.45-34.24L136.45-34.24L136.45-34.24Q132.74-34.24 128.96-35.97L128.96-35.97L126.98-24.77L138.37-24.77L138.37-24.77Q138.37-21.38 136.70-19.49L136.70-19.49L136.70-19.49Q135.04-17.60 132.26-17.60L132.26-17.60L132.26-17.60Q129.47-17.60 127.74-18.24L127.74-18.24L127.74-18.24Q126.02-18.88 125.82-19.07L125.82-19.07L123.52-6.98L123.52-6.98Q125.06-6.78 127.94-6.78L127.94-6.78L127.94-6.78Q132.86-6.78 136.38-9.86ZM166.72-31.55L166.72-31.55L166.72-31.55Q168.83-33.92 172.48-33.92L172.48-33.92L172.48-33.92Q174.72-33.92 176.45-32.70L176.45-32.70L176.45-32.70Q178.18-31.49 178.18-29.22L178.18-29.22L178.18-29.22Q178.18-26.94 177.47-24.51L177.47-24.51L177.47-24.51Q176.77-22.08 175.68-19.58L175.68-19.58L175.68-19.58Q173.50-14.72 170.50-10.69L170.50-10.69L170.50-10.69Q166.27-4.86 162.21-1.79L162.21-1.79L162.21-1.79Q158.14 1.28 153.73 1.28L153.73 1.28L153.73 1.28Q150.14 1.28 147.97 0.45L147.97 0.45L147.97 0.45Q147.58-12.99 147.10-17.79L147.10-17.79L147.10-17.79Q146.62-22.59 146.24-25.22L146.24-25.22L146.24-25.22Q145.60-30.34 143.68-31.55L143.68-31.55L143.68-31.55Q145.15-32.83 146.59-33.38L146.59-33.38L146.59-33.38Q148.03-33.92 151.01-33.92L151.01-33.92L151.01-33.92Q153.98-33.92 156.10-31.58L156.10-31.58L156.10-31.58Q158.21-29.25 158.62-25.12L158.62-25.12L158.62-25.12Q159.04-20.99 159.04-16L159.04-16L159.04-16Q159.04-11.01 158.66-4.99L158.66-4.99L158.66-4.99Q160.64-6.40 162.75-10.69L162.75-10.69L162.75-10.69Q165.63-16.64 166.66-23.81L166.66-23.81L166.66-23.81Q166.98-25.98 166.98-28.29L166.98-28.29L166.98-28.29Q166.98-30.59 166.72-31.55ZM205.82-10.82L205.82-10.82L205.82-10.82Q207.42-9.73 207.42-7.33L207.42-7.33L207.42-7.33Q207.42-4.93 206.21-3.39L206.21-3.39L206.21-3.39Q204.99-1.86 203.01-0.83L203.01-0.83L203.01-0.83Q198.91 1.28 194.50 1.28L194.50 1.28L194.50 1.28Q190.08 1.28 187.49 0.32L187.49 0.32L187.49 0.32Q184.90-0.64 183.17-2.43L183.17-2.43L183.17-2.43Q179.78-5.82 179.78-12.03L179.78-12.03L179.78-12.03Q179.78-21.70 185.02-27.58L185.02-27.58L185.02-27.58Q190.66-33.92 200.45-33.92L200.45-33.92L200.45-33.92Q206.53-33.92 209.54-31.36L209.54-31.36L209.54-31.36Q211.78-29.44 211.78-26.30L211.78-26.30L211.78-26.30Q211.78-15.04 192.32-15.04L192.32-15.04L192.32-15.04Q192.06-13.38 192.06-11.97L192.06-11.97L192.06-11.97Q192.06-9.02 193.38-7.90L193.38-7.90L193.38-7.90Q194.69-6.78 197.12-6.78L197.12-6.78L197.12-6.78Q199.55-6.78 202.14-7.90L202.14-7.90L202.14-7.90Q204.74-9.02 205.82-10.82ZM192.77-17.79L192.77-17.79L192.77-17.79Q197.31-17.79 199.94-20.61L199.94-20.61L199.94-20.61Q202.56-23.30 202.56-27.58L202.56-27.58L202.56-27.58Q202.56-29.06 202.02-29.86L202.02-29.86L202.02-29.86Q201.47-30.66 200.38-30.66L200.38-30.66L200.38-30.66Q199.30-30.66 198.37-30.24L198.37-30.24L198.37-30.24Q197.44-29.82 196.48-28.42L196.48-28.42L196.48-28.42Q194.11-25.22 192.77-17.79ZM233.98-17.98L233.98-17.98L233.98-17.98Q236.29-22.08 236.29-26.24L236.29-26.24L236.29-26.24Q236.29-28.99 234.30-28.99L234.30-28.99L234.30-28.99Q232.77-28.99 231.17-26.37L231.17-26.37L231.17-26.37Q229.50-23.74 228.99-20.35L228.99-20.35L225.66 0L212.42 1.28L218.94-32.64L229.50-33.92L228.35-27.46L228.35-27.46Q231.49-33.92 238.53-33.92L238.53-33.92L238.53-33.92Q242.24-33.92 244.26-32L244.26-32L244.26-32Q246.27-30.08 246.27-26.14L246.27-26.14L246.27-26.14Q246.27-22.21 243.68-19.71L243.68-19.71L243.68-19.71Q241.09-17.22 236.67-17.22L236.67-17.22L236.67-17.22Q234.75-17.22 233.98-17.98Z" fill="url(#editing-gradow-gradient)"></path></g></g><style>text {
  font-size: 64px;
  font-family: Arial Black;
  dominant-baseline: central;
  text-anchor: middle;
}</style></svg>