<svg width="2649" height="674" viewBox="0 0 2649 674" fill="none" xmlns="http://www.w3.org/2000/svg">
<path fill-rule="evenodd" clip-rule="evenodd" d="M554.313 1.76513C544.716 5.08287 536.809 11.2413 530.369 20.411C522.17 32.0871 520.588 41.6477 521.929 71.4326C522.97 94.5706 522.342 99.6582 517.161 110.009C508.709 126.897 489.749 144.251 473.52 149.955C467.535 152.058 465.692 152.085 456.82 150.193C447.181 148.139 409.884 148.138 391.963 150.192C385.02 150.988 369.154 152.8 356.704 154.22C299.335 160.763 270.354 159.16 247.068 148.158C234.939 142.428 229.51 137.008 218.719 119.861C212.37 109.772 203.049 99.7749 198.805 98.503C194.703 97.2746 189.352 98.5935 186.613 101.508C184.166 104.114 180.78 112.228 179.378 118.845C178.369 123.611 178.015 124.099 172.772 127.948C165.623 133.197 160.043 140.637 157.793 147.92C156.828 151.045 156.038 154.526 156.038 155.655C156.038 156.903 154.224 159.74 151.407 162.896C144.169 171.008 143.197 177.418 147.817 186.579C151.412 193.708 158.498 198.507 170.838 202.171C182.752 205.709 190.956 210.964 200.922 221.44C207.449 228.3 211.512 234.181 213.718 239.959C215.212 243.877 215.346 245.765 214.857 256.147C213.508 284.823 211.09 308.022 208.103 320.958C206.487 327.958 205.889 329.192 202.185 333.146C196.856 338.836 196.084 340.431 196.084 345.758C196.084 353.1 197.173 353.651 211.681 353.651H223.796L226.37 350.386C235.072 339.346 245.533 319.847 250.543 305.334C251.864 301.504 253.242 298.031 253.605 297.617C255.358 295.614 263.382 313.904 266.675 327.409L268.662 335.555L266.842 336.985C262.046 340.755 260.055 347.893 262.732 351.715C264.032 353.572 264.631 353.651 277.369 353.651H290.651L292.943 351.257C298.901 345.035 301.634 333.211 301.644 313.604C301.651 300.571 301.259 296.369 298.338 278.268L297.763 274.708L311.999 274.164C319.829 273.866 330.936 273.007 336.681 272.257C347.852 270.798 379.917 265.886 382.841 265.185C384.329 264.829 385.563 266.487 390.82 275.908C394.241 282.037 398.694 290.31 400.715 294.292C404.319 301.389 404.382 301.663 403.902 308.221C403.632 311.9 402.177 319.012 400.669 324.024C398.468 331.342 397.264 333.857 394.564 336.787C392.572 338.948 390.96 341.716 390.611 343.576C389.932 347.2 391.419 351.558 393.766 352.813C394.627 353.274 399.632 353.651 404.89 353.651H414.449L418.099 349.516C423.741 343.122 434.932 325.92 439.004 317.383C442.057 310.981 445.371 299.876 447.356 289.397C447.724 287.459 447.876 287.513 451.829 290.992C461.037 299.097 461.607 301.749 458.139 320.339C456.593 328.626 454.933 335.196 454.248 335.734C452.183 337.36 449.427 342.674 449.424 345.034C449.422 346.28 450.316 348.63 451.412 350.257L453.403 353.215L463.721 353.462L474.04 353.708L477.744 349.842C484.778 342.501 495.548 317.286 498.231 301.879C499.475 294.74 498.97 289.107 496.001 277.018C492.934 264.526 492.433 255.881 494.195 245.903C496.49 232.901 495.99 204.593 493.273 193.767C492.668 191.355 493.493 190.552 506.443 180.966C516.797 173.302 533.337 156.503 539.799 147.09C545.569 138.683 552.352 124.446 554.411 116.42C556.044 110.057 556.456 94.9423 555.705 68.9741C555.175 50.6268 556.3 48.2501 569.079 40.7293C582.45 32.8602 586.737 25.7215 584.39 15.2346C583.049 9.24072 577.104 2.63048 571.736 1.16095C566.679 -0.221514 559.321 0.0326926 554.313 1.76513ZM571.504 13.1861C573.917 15.3426 574.347 16.3193 574.347 19.6449C574.347 24.6829 572.63 26.5294 562.103 32.8114C552.609 38.4771 549.22 42.2084 546.967 49.4742C544.928 56.0487 544.67 62.7704 545.585 85.5149C546.198 100.771 546.089 104.436 544.833 110.761C542.944 120.276 535.938 134.716 528.359 144.722C520.966 154.482 505.88 168.896 495.088 176.514C488.075 181.464 486.025 183.424 484.355 186.77L482.292 190.907L483.703 199.966C485.501 211.513 485.559 233.804 483.82 244.394C482.075 255.01 482.196 262.002 484.289 271.817C488.927 293.551 489.003 294.146 487.94 300.344C486.097 311.085 478.791 329.78 472.635 339.504C470.428 342.989 470.057 343.204 466.25 343.204C462.436 343.204 462.287 343.117 463.606 341.66C465.49 339.578 470.573 313.92 470.629 306.205C470.665 301.372 470.191 299.064 468.342 295.054C465.952 289.869 464.546 288.395 447.679 273.39C436.982 263.875 429.823 255.383 426.535 248.312C423.323 241.405 421.853 239.606 419.417 239.606C415.13 239.606 413.432 243.024 414.982 248.529C415.627 250.821 415.523 250.923 412.546 250.923C408.45 250.923 394.604 252.839 368.457 257.022C332.951 262.703 306.104 265.217 297.731 263.646C294.859 263.108 294.448 262.653 293.095 258.513C291.297 253.009 289.328 248.97 288.025 248.107C285.161 246.213 280.53 248.774 280.53 252.254C280.53 253.316 281.877 258.297 283.523 263.324C291.628 288.063 293.833 320.373 288.589 337.545L286.994 342.769L281.543 343.029L276.091 343.289L277.94 341.44C279.472 339.909 279.692 338.965 279.223 335.956C277.96 327.862 273.364 312.018 270.193 304.834C265.304 293.753 260.23 286.658 247.697 273.371C235.377 260.311 230.218 252.631 224.633 239.031C220.181 228.194 216.576 222.733 207.842 213.599C196.497 201.734 188.26 196.595 173.014 191.873C163.42 188.901 158.371 185.518 156.365 180.718C154.448 176.129 154.889 174.691 159.952 169.017C162.734 165.898 165.067 162.331 165.527 160.495C165.961 158.759 166.769 155.378 167.323 152.984C169.163 145.034 173.643 139.606 183.638 133.214C186.048 131.673 187.514 130.012 187.866 128.426C190.512 116.477 193.433 108.15 194.979 108.15C197.113 108.15 206.493 119.618 212.945 130.115C221.409 143.888 228.411 150.446 241.789 157.132C259.817 166.143 285.782 169.961 317.235 168.228C333.973 167.305 339.707 166.76 371.939 163.027C384.149 161.613 400.01 159.994 407.185 159.429C422.822 158.199 447.353 158.877 455.95 160.778C463.426 162.431 467.701 162.463 473.361 160.91C493.282 155.444 516.123 135.564 526.495 114.665C532.544 102.477 533.277 97.4818 532.431 74.1975C531.561 50.2228 531.85 43.1068 533.977 36.1927C536.966 26.4772 547.229 15.2816 556.138 12.0178C558.014 11.3301 561.598 10.7407 564.104 10.7068C567.956 10.6554 569.1 11.0384 571.504 13.1861ZM173.102 154.198C169.584 157.87 170.496 159.513 176.052 159.513C179.935 159.513 180.571 159.251 181.473 157.269C183.854 152.043 177.426 149.685 173.102 154.198ZM424.643 264.635C426.453 266.91 430.264 271.174 433.112 274.111C439.014 280.2 438.829 278.39 435.33 295.758C432.79 308.37 426.281 321.314 414.429 337.328C410.292 342.918 409.906 343.204 406.513 343.204C403.47 343.204 403.159 343.045 404.393 342.116C407.918 339.463 414.595 315.365 414.597 305.288C414.597 298.403 413.066 294.661 402.047 274.626C398.895 268.894 396.315 263.983 396.315 263.711C396.315 262.998 408.951 261.315 419.499 260.622C420.749 260.54 422.424 261.846 424.643 264.635ZM229.599 268.77C231.878 271.643 236.305 276.617 239.438 279.824L245.134 285.655L244.008 290.706C241.135 303.597 232.201 323.389 223.256 336.675L219.154 342.769L213.06 343.03L206.966 343.291L210.626 339.77C213.54 336.969 214.73 334.847 216.461 329.369C220.058 317.982 223.067 296.874 224.451 273.315C224.782 267.676 225.143 263.171 225.254 263.304C225.364 263.437 227.319 265.897 229.599 268.77Z" fill="#E9E9E9"/>
<path fill-rule="evenodd" clip-rule="evenodd" d="M1796.15 109.123C1788.49 111.862 1783.6 116.529 1781.17 123.427C1777.81 132.934 1768.61 166.006 1767.71 171.801C1766.18 181.673 1767.16 198.368 1770.28 215.388C1771.76 223.458 1773.82 234.722 1774.86 240.418C1777.53 255.045 1777.27 264.271 1773.82 278.395C1769.52 295.979 1770.14 304.446 1776.62 317.042C1782.13 327.747 1792.1 335.911 1803.16 338.778L1807.05 339.784L1807.48 352.108C1807.89 363.76 1808.02 364.521 1809.95 366.08C1812.57 368.198 1814.46 368.161 1817.29 365.938L1819.56 364.15V348.676C1819.56 330.423 1819.75 330.815 1809.97 328.457C1799.17 325.852 1793.57 322.133 1788.47 314.189C1785.21 309.104 1782.45 300.75 1782.45 295.965C1782.45 294.083 1783.66 287.612 1785.14 281.585C1789.75 262.78 1789.61 256.979 1783.69 223.588C1778.07 191.9 1777.34 180.426 1780.18 168.78C1782.16 160.68 1791.79 128.199 1793 125.54C1795.03 121.082 1803.08 118.521 1807.54 120.911C1811.47 123.015 1838.85 143.356 1840.04 145.061C1840.76 146.088 1847.08 156.991 1854.1 169.289L1866.85 191.648L1872.19 214.738C1875.14 227.438 1878.9 243.745 1880.56 250.974L1883.58 264.12L1881.74 266.459C1880.73 267.746 1876.68 272.317 1872.73 276.618C1868.79 280.918 1857.93 292.953 1848.6 303.362C1834.12 319.528 1831.64 322.686 1831.64 325.021C1831.64 330.295 1837.37 332.438 1841.39 328.671C1842.53 327.603 1847.12 322.661 1851.58 317.688C1856.04 312.715 1860.08 308.217 1860.56 307.692C1861.03 307.166 1869.13 298.148 1878.56 287.652C1891.02 273.773 1896.36 268.422 1898.12 268.035C1901.02 267.398 1905.86 268.602 1912.1 271.506C1917.26 273.909 1922.84 274.212 1935.43 272.77C1940.59 272.178 1945.51 272.193 1950.97 272.816C1964.31 274.339 1968.01 274.089 1974.62 271.219C1981.72 268.135 1985.18 267.332 1988.14 268.075C1989.62 268.446 1998.96 278.205 2016.07 297.249C2030.21 312.989 2042.83 326.935 2044.11 328.24C2048.36 332.594 2054.33 330.597 2054.33 324.819C2054.33 322.61 2051.63 319.18 2037.79 303.741C2028.69 293.598 2017.8 281.546 2013.58 276.956C2009.37 272.367 2005.12 267.599 2004.15 266.359L2002.38 264.105L2005.52 250.535C2007.25 243.072 2011.01 226.868 2013.87 214.525L2019.09 192.084L2031.24 170.506C2037.93 158.639 2044.26 147.64 2045.32 146.065C2046.92 143.658 2073.15 123.739 2078.43 120.911C2080.68 119.71 2086.25 119.826 2088.56 121.124C2092.24 123.186 2093.78 126.757 2099.47 146.339C2107.02 172.364 2107.34 173.964 2107.32 185.611C2107.3 193.804 2106.44 200.375 2102.39 223.264C2096.63 255.802 2096.35 261.364 2099.71 275.806C2103.67 292.814 2103.99 295.514 2102.77 301.422C2100.81 310.92 2095.08 319.661 2087.83 324.242C2086.07 325.351 2081.25 327.108 2077.11 328.146C2066.09 330.91 2066.41 330.297 2066.41 348.346C2066.41 363.274 2066.44 363.52 2068.53 365.608C2071.07 368.154 2073.29 368.293 2076.02 366.08C2077.95 364.523 2078.09 363.76 2078.49 352.151L2078.93 339.869L2083.58 338.679C2090.68 336.866 2096.18 333.447 2102.11 327.158C2108.71 320.166 2112.78 312.089 2114.41 302.744C2115.76 295.015 2115.36 291.168 2111.62 275.61C2108.79 263.844 2108.66 253.562 2111.19 240.395C2118.66 201.426 2120.34 184.616 2118.14 170.938C2116.98 163.692 2105.79 125.132 2103.46 120.304C2100.42 114.044 2093.06 109.108 2085.39 108.2C2077.16 107.226 2073.6 109.19 2044.18 130.963C2036.88 136.364 2037.58 135.344 2020.85 164.896L2007.89 187.769L2001.27 216.683C1997.62 232.586 1994.05 247.978 1993.33 250.887L1992.02 256.178L1984.98 256.565C1979.48 256.868 1976.56 257.566 1971.62 259.749C1965.33 262.532 1965.27 262.54 1957.81 261.625C1948.28 260.456 1937.69 260.456 1928.16 261.625C1920.7 262.54 1920.64 262.532 1914.35 259.749C1909.41 257.566 1906.49 256.868 1900.99 256.565L1893.95 256.178L1892.64 250.887C1891.92 247.978 1888.35 232.586 1884.7 216.683L1878.08 187.769L1863.88 162.738C1856.06 148.972 1848.63 136.678 1847.35 135.419C1846.07 134.16 1840.75 130.057 1835.53 126.301C1830.31 122.545 1823.32 117.495 1819.99 115.08C1810.77 108.379 1803.4 106.535 1796.15 109.123ZM1845.61 190.517C1844.99 190.766 1844.1 191.97 1843.63 193.192C1842.94 195.015 1844.37 200.695 1851.57 224.785L1860.35 254.154L1857.55 262.832C1856 267.604 1854.89 272.24 1855.06 273.135C1855.24 274.028 1856.42 275.538 1857.7 276.49C1859.72 277.998 1860.35 278.083 1862.6 277.149C1864.02 276.561 1865.45 275.436 1865.77 274.648C1867.77 269.76 1872.21 255.765 1872.21 254.333C1872.21 253.391 1870.86 248.127 1869.21 242.636C1867.56 237.144 1863.47 223.523 1860.12 212.367C1856.49 200.255 1853.46 191.649 1852.6 191.005C1851.15 189.918 1847.71 189.677 1845.61 190.517ZM2033.41 191.005C2031.85 192.214 2013.76 250.462 2013.76 254.286C2013.76 256.61 2019.79 274.718 2020.98 275.965C2022.96 278.029 2026.25 278.14 2028.69 276.224C2031.66 273.888 2031.62 272.535 2028.31 262.434L2025.59 254.151L2034.35 225.002C2039.17 208.971 2043.11 195.298 2043.11 194.617C2043.11 190.999 2036.57 188.564 2033.41 191.005ZM2051.31 280.475C2041.44 283.824 2038.99 284.988 2037.96 286.821C2036.24 289.872 2037.57 293.613 2040.79 294.743C2042.72 295.423 2045 294.983 2052.61 292.471C2060.93 289.721 2062.08 289.523 2062.46 290.781C2062.69 291.564 2063.85 296.477 2065.04 301.699C2067.3 311.634 2068.89 314.214 2072.75 314.214C2073.95 314.214 2077.22 311.438 2082.14 306.231C2088.24 299.766 2089.68 297.738 2089.7 295.575C2089.73 289.753 2083.68 288.024 2079.04 292.529C2077.51 294.012 2076.02 295.226 2075.74 295.226C2075.45 295.226 2074.79 292.799 2074.27 289.831C2071.51 274.145 2070.8 273.858 2051.31 280.475ZM1816.36 278.654C1814.91 279.577 1813.03 284.379 1811.82 290.263C1811.27 292.993 1810.52 295.226 1810.17 295.226C1809.81 295.226 1808.41 294.061 1807.05 292.637C1802.62 288.022 1796.26 289.856 1796.26 295.745C1796.26 297.783 1797.7 299.716 1803.54 305.531C1809.54 311.501 1811.3 312.776 1813.51 312.776C1814.98 312.776 1816.79 312.175 1817.53 311.439C1818.26 310.704 1819.95 305.958 1821.27 300.891C1822.6 295.826 1823.83 291.536 1824 291.359C1824.18 291.182 1828.48 292.06 1833.57 293.309C1844.11 295.898 1847 295.542 1848.43 291.483C1849.07 289.672 1848.96 288.487 1847.98 286.752C1846.83 284.704 1845.25 284.069 1834.2 281.244C1821.38 277.965 1818.17 277.5 1816.36 278.654ZM1879.98 344.423C1876.97 347.428 1877.85 349.703 1886.52 361.357C1895.37 373.242 1899.85 378.085 1902.01 378.085C1904.08 378.085 1907.6 374.1 1907.6 371.76C1907.6 369.918 1894.01 350.75 1888.37 344.639C1886.14 342.215 1882.29 342.115 1879.98 344.423ZM1997.61 344.639C1991.95 350.809 1978.37 369.962 1978.37 371.779C1978.37 374.034 1981.88 378.085 1983.83 378.085C1986.15 378.085 1989.44 374.603 1998.55 362.483C2004.28 354.875 2007.72 349.52 2007.72 348.224C2007.72 343.282 2001.03 340.91 1997.61 344.639ZM1863.13 375.425C1856.61 377.011 1852.36 382.66 1852.36 389.745C1852.36 397.489 1857.73 403.174 1865.58 403.733C1873.76 404.314 1879.97 398.98 1880.65 390.777C1881.48 380.721 1872.77 373.084 1863.13 375.425ZM2014.62 375.34C2009.12 377.834 2005.99 382.68 2005.99 388.711C2005.99 393.792 2008.77 397.817 2014.09 400.457C2017.97 402.379 2018.63 402.461 2022.29 401.483C2029.11 399.661 2032.75 394.903 2032.75 387.822C2032.75 380.324 2026.81 374.554 2019.24 374.693C2017.41 374.726 2015.34 375.017 2014.62 375.34Z" fill="#E9E9E9"/>
<path d="M410.659 301.68C447.406 301.68 476.179 312.773 496.979 334.96C518.126 357.147 528.699 387.48 528.699 425.96V596H426.779V439.48C426.779 423.88 422.446 411.747 413.779 403.08C405.112 394.413 393.326 390.08 378.419 390.08C363.512 390.08 351.726 394.413 343.059 403.08C334.392 411.747 330.059 423.88 330.059 439.48V596H228.139V439.48C228.139 423.88 223.806 411.747 215.139 403.08C206.819 394.413 195.206 390.08 180.299 390.08C165.046 390.08 153.086 394.413 144.419 403.08C135.752 411.747 131.419 423.88 131.419 439.48V596H29.4989V304.28H131.419V342.76C140.432 330.28 152.046 320.4 166.259 313.12C180.819 305.493 197.459 301.68 216.179 301.68C237.672 301.68 256.739 306.36 273.379 315.72C290.366 325.08 303.712 338.253 313.419 355.24C323.819 339.293 337.512 326.467 354.499 316.76C371.486 306.707 390.206 301.68 410.659 301.68ZM636.018 277.24C617.991 277.24 603.431 272.387 592.338 262.68C581.591 252.627 576.218 240.147 576.218 225.24C576.218 209.987 581.591 197.333 592.338 187.28C603.431 177.227 617.991 172.2 636.018 172.2C653.698 172.2 667.911 177.227 678.658 187.28C689.751 197.333 695.298 209.987 695.298 225.24C695.298 240.147 689.751 252.627 678.658 262.68C667.911 272.387 653.698 277.24 636.018 277.24ZM686.458 304.28V596H584.538V304.28H686.458Z" fill="#02A894"/>
<path d="M727.859 449.88C727.859 419.72 733.232 393.373 743.979 370.84C755.072 348.307 769.979 330.973 788.699 318.84C807.766 306.707 828.912 300.64 852.139 300.64C872.246 300.64 889.579 304.627 904.139 312.6C918.699 320.573 929.966 331.32 937.939 344.84V304.28H1039.86V596H937.939V555.44C929.966 568.96 918.526 579.707 903.619 587.68C889.059 595.653 871.899 599.64 852.139 599.64C828.912 599.64 807.766 593.573 788.699 581.44C769.979 569.307 755.072 551.973 743.979 529.44C733.232 506.56 727.859 480.04 727.859 449.88ZM937.939 449.88C937.939 431.16 932.739 416.427 922.339 405.68C912.286 394.933 899.806 389.56 884.899 389.56C869.646 389.56 856.992 394.933 846.939 405.68C836.886 416.08 831.859 430.813 831.859 449.88C831.859 468.6 836.886 483.507 846.939 494.6C856.992 505.347 869.646 510.72 884.899 510.72C899.806 510.72 912.286 505.347 922.339 494.6C932.739 483.853 937.939 468.947 937.939 449.88ZM1396.42 304.28V596H1293.98V554.4C1285.31 567.573 1273.35 578.32 1258.1 586.64C1242.84 594.613 1225.34 598.6 1205.58 598.6C1171.6 598.6 1144.74 587.507 1124.98 565.32C1105.56 542.787 1095.86 512.28 1095.86 473.8V304.28H1197.26V460.8C1197.26 477.44 1201.59 490.613 1210.26 500.32C1219.27 509.68 1231.06 514.36 1245.62 514.36C1260.52 514.36 1272.31 509.68 1280.98 500.32C1289.64 490.613 1293.98 477.44 1293.98 460.8V304.28H1396.42Z" fill="#F0494F"/>
<path d="M1437.78 449.88C1437.78 419.72 1443.15 393.373 1453.9 370.84C1464.99 348.307 1480.07 330.973 1499.14 318.84C1518.21 306.707 1539.35 300.64 1562.58 300.64C1581.3 300.64 1597.94 304.627 1612.5 312.6C1627.41 320.227 1639.02 330.8 1647.34 344.32V211.2H1749.78V596H1647.34V555.44C1639.37 568.96 1628.1 579.707 1613.54 587.68C1598.98 595.653 1581.82 599.64 1562.06 599.64C1538.83 599.64 1517.69 593.573 1498.62 581.44C1479.9 569.307 1464.99 551.973 1453.9 529.44C1443.15 506.56 1437.78 480.04 1437.78 449.88ZM1647.86 449.88C1647.86 431.16 1642.66 416.427 1632.26 405.68C1622.21 394.933 1609.73 389.56 1594.82 389.56C1579.57 389.56 1566.91 394.933 1556.86 405.68C1546.81 416.08 1541.78 430.813 1541.78 449.88C1541.78 468.6 1546.81 483.507 1556.86 494.6C1566.91 505.347 1579.57 510.72 1594.82 510.72C1609.73 510.72 1622.21 505.347 1632.26 494.6C1642.66 483.853 1647.86 468.947 1647.86 449.88ZM1943.58 599.64C1914.46 599.64 1888.28 593.573 1865.06 581.44C1842.18 569.307 1824.15 551.973 1810.98 529.44C1797.8 506.907 1791.22 480.387 1791.22 449.88C1791.22 419.72 1797.8 393.373 1810.98 370.84C1824.5 348.307 1842.7 330.973 1865.58 318.84C1888.8 306.707 1914.98 300.64 1944.1 300.64C1973.22 300.64 1999.22 306.707 2022.1 318.84C2045.32 330.973 2063.52 348.307 2076.7 370.84C2090.22 393.373 2096.98 419.72 2096.98 449.88C2096.98 480.04 2090.22 506.56 2076.7 529.44C2063.52 551.973 2045.32 569.307 2022.1 581.44C1998.87 593.573 1972.7 599.64 1943.58 599.64ZM1943.58 511.24C1957.79 511.24 1969.58 506.04 1978.94 495.64C1988.64 484.893 1993.5 469.64 1993.5 449.88C1993.5 430.12 1988.64 415.04 1978.94 404.64C1969.58 394.24 1957.96 389.04 1944.1 389.04C1930.23 389.04 1918.62 394.24 1909.26 404.64C1899.9 415.04 1895.22 430.12 1895.22 449.88C1895.22 469.987 1899.72 485.24 1908.74 495.64C1917.75 506.04 1929.36 511.24 1943.58 511.24ZM2310.56 509.16V596H2266.36C2191.83 596 2154.56 559.08 2154.56 485.24V389.04H2118.68V304.28H2154.56V233.56H2257V304.28H2310.04V389.04H2257V486.8C2257 494.773 2258.74 500.493 2262.2 503.96C2266.02 507.427 2272.26 509.16 2280.92 509.16H2310.56ZM2636.03 446.76C2636.03 454.733 2635.51 462.707 2634.47 470.68H2441.55C2442.59 486.627 2446.92 498.587 2454.55 506.56C2462.52 514.187 2472.58 518 2484.71 518C2501.7 518 2513.83 510.373 2521.11 495.12H2629.79C2625.28 515.227 2616.44 533.253 2603.27 549.2C2590.44 564.8 2574.15 577.107 2554.39 586.12C2534.63 595.133 2512.79 599.64 2488.87 599.64C2460.1 599.64 2434.44 593.573 2411.91 581.44C2389.72 569.307 2372.22 551.973 2359.39 529.44C2346.91 506.907 2340.67 480.387 2340.67 449.88C2340.67 419.373 2346.91 393.027 2359.39 370.84C2371.87 348.307 2389.2 330.973 2411.39 318.84C2433.92 306.707 2459.75 300.64 2488.87 300.64C2517.64 300.64 2543.12 306.533 2565.31 318.32C2587.5 330.107 2604.83 347.093 2617.31 369.28C2629.79 391.12 2636.03 416.947 2636.03 446.76ZM2532.03 421.28C2532.03 408.8 2527.87 399.093 2519.55 392.16C2511.23 384.88 2500.83 381.24 2488.35 381.24C2475.87 381.24 2465.64 384.707 2457.67 391.64C2449.7 398.227 2444.5 408.107 2442.07 421.28H2532.03Z" fill="#E9E9E9"/>
</svg>
